<svg xmlns="http://www.w3.org/2000/svg" width="475" height="475" viewBox="0 0 475.1 475.1"><path d="M436.2 146.8c5.1-15.4 7.7-31.4 7.7-48 0-22.1-4.9-42.8-14.6-62.2 -20.4 0-38.3 3.7-54 11.1 -15.6 7.4-33.4 18.9-53.4 34.5 -25.1-6.1-51.8-9.1-79.9-9.1 -30.8 0-60.2 3.3-88.2 10 -20.4-16-38.4-27.7-54-35.3 -15.6-7.5-33.7-11.3-54.2-11.3 -9.7 19.4-14.6 40.2-14.6 62.2 0 16.8 2.6 32.9 7.7 48.5C12.9 177.6 0 215.3 0 260.4c0 39.6 5.9 71.1 17.7 94.5 6.3 12.4 14.5 23.3 24.6 32.8 10.1 9.5 21.6 17.2 34.5 23.1 12.9 5.9 26 10.8 39.1 14.7 13.1 3.9 27.6 6.8 43.5 8.6 15.9 1.8 29.9 3 42.1 3.6 12.2 0.6 25.7 0.9 40.5 0.9 17.5 0 33.4-0.4 47.7-1.3 14.3-0.9 30.6-3 49-6.3 18.4-3.3 34.5-7.9 48.5-13.6 14-5.7 27.4-13.9 40.3-24.6 12.8-10.7 22.9-23.3 30.1-38 11.6-23.6 17.4-55.1 17.4-94.5C475.1 215.1 462.1 177.2 436.2 146.8zM402 354.5c-6.1 12.5-13.8 22.3-23.1 29.4 -9.3 7.1-20.9 12.8-34.8 17.1 -13.9 4.3-27.2 7.1-40 8.4 -12.8 1.3-26.9 2-42.5 2h-48c-15.6 0-29.8-0.7-42.5-2 -12.8-1.3-26.1-4.1-40-8.4 -13.9-4.3-25.5-10-34.8-17.1 -9.3-7.1-17-16.9-23.1-29.4 -6.1-12.5-9.1-27.1-9.1-43.8 0-22.8 6.6-42.3 19.7-58.2 13.1-16 30.9-24 53.4-24 8.2 0 26.7 2 55.7 6 13.5 2.1 28.5 3.1 44.8 3.1 16.4 0 31.3-1 44.8-3.1 29.3-4 47.9-6 55.7-6 22.5 0 40.3 8 53.4 24 13.1 16 19.7 35.4 19.7 58.2C411.1 327.4 408.1 342 402 354.5z"/><path d="M166.9 265.5c-5.8-6.5-12.7-9.7-20.7-9.7 -8 0-14.9 3.2-20.7 9.7 -5.8 6.5-9.9 13.7-12.3 21.7 -2.4 8-3.6 15.8-3.6 23.4 0 7.6 1.2 15.4 3.6 23.4 2.4 8 6.5 15.2 12.3 21.7 5.8 6.5 12.7 9.7 20.7 9.7 8 0 14.9-3.2 20.7-9.7 5.8-6.5 9.9-13.7 12.3-21.7 2.4-8 3.6-15.8 3.6-23.4 0-7.6-1.2-15.4-3.6-23.4C176.8 279.2 172.7 272 166.9 265.5z"/><path d="M349.6 265.5c-5.8-6.5-12.7-9.7-20.7-9.7 -8 0-14.9 3.2-20.7 9.7 -5.8 6.5-9.9 13.7-12.3 21.7 -2.4 8-3.6 15.8-3.6 23.4 0 7.6 1.2 15.4 3.6 23.4 2.4 8 6.5 15.2 12.3 21.7 5.8 6.5 12.7 9.7 20.7 9.7 8 0 14.9-3.2 20.7-9.7 5.8-6.5 9.9-13.7 12.3-21.7 2.4-8 3.6-15.8 3.6-23.4 0-7.6-1.2-15.4-3.6-23.4C359.5 279.2 355.4 272 349.6 265.5z"/></svg>
